Coordinates
version=1
nRows=12
nColumns=32
inDegrees=yes

Units are S.I. units (second, meters, Newtons, ...)
If the header above contains a line with 'inDegrees', this indicates whether rotational values are in degrees (yes) or radians (no).

endheader
time	pelvis_tilt	pelvis_list	pelvis_rotation	pelvis_tx	pelvis_ty	pelvis_tz	hip_flexion_r	hip_adduction_r	hip_rotation_r	knee_angle_r	knee_adduction_r	med_cond_adduction_r	lat_cond_adduction_r	patella_r_constrained_knee_angle	hip_flexion_l	hip_adduction_l	hip_rotation_l	knee_angle_l	knee_adduction_l	med_cond_adduction_l	lat_cond_adduction_l	patella_l_constrained_knee_angle	lumbar_extension	lumbar_bending	lumbar_rotation	ankle_angle_r	subtalar_angle_r	mtp_angle_r	ankle_angle_l	subtalar_angle_l	mtp_angle_l
      1.85500000	    -14.77218556	      2.99581798	      0.51233467	      0.36378731	      0.69872674	     -0.33830152	     40.27103368	     -7.04805591	      5.14273811	    -67.65443135	      5.53399311	     -0.00000000	     -0.00000000	     -1.18079258	     27.84675320	      7.00818590	     -1.96146344	    -21.51259255	     -2.87865239	     -0.00000000	     -0.00000000	     -0.37546557	     -0.06552847	     -3.57366584	     -4.40260985	     -1.28365524	      8.07694104	      0.00000000	      3.99842091	     10.46840113	     -0.00000000
      1.86000000	    -14.53481468	      2.87365089	      0.67962293	      0.37043410	      0.70024062	     -0.33841406	     40.64435420	     -7.11777669	      5.29925730	    -66.70246236	      6.10717980	     -0.00000000	     -0.00000000	     -1.16417759	     26.49253219	      7.08267522	     -2.18840845	    -20.52230841	     -3.28967956	     -0.00000000	     -0.00000000	     -0.35818185	     -0.59409038	     -3.41132938	     -4.88522848	     -0.51906486	      6.99454364	      0.00000000	      4.29744031	     10.77021850	     -0.00000000
      1.86500000	    -14.47338157	      2.64514826	      0.97191915	      0.37711767	      0.70148719	     -0.33855248	     41.10836488	     -7.10685742	      5.31195610	    -65.63387983	      6.65108703	     -0.00000000	     -0.00000000	     -1.14552730	     25.32340333	      7.02199720	     -1.93870472	    -19.57216475	     -3.43093842	     -0.00000000	     -0.00000000	     -0.34159872	     -0.58762004	     -3.16174518	     -5.24826332	     -0.11378838	      5.99956993	     -0.00000000	      4.30913919	     10.85179952	      0.00000000
      1.87000000	    -14.40281341	      2.42730323	      1.25283031	      0.38377079	      0.70258375	     -0.33867855	     41.53583075	     -7.10882134	      5.23528548	    -64.51832815	      7.06943184	      0.00000000	      0.00000000	     -1.12605725	     24.18248667	      6.97419935	     -1.68253427	    -18.68592415	     -3.60279936	      0.00000000	      0.00000000	     -0.32613090	     -0.73676757	     -2.91387595	     -5.66302232	      0.35816789	      5.01589766	     -0.00000000	      4.44147915	     10.97889555	     -0.00000000
      1.87500000	    -14.33692845	      2.24136137	      1.55978245	      0.39038009	      0.70350201	     -0.33881817	     41.95364556	     -7.17172442	      5.07677554	    -63.36645346	      7.41942185	      0.00000000	      0.00000000	     -1.10595325	     23.08128462	      6.95999726	     -1.34665258	    -17.86271145	     -3.75116365	     -0.00000000	     -0.00000000	     -0.31176313	     -0.91363244	     -2.72239107	     -6.04923220	      0.63453953	      4.11566734	     -0.00000000	      4.44015724	     10.86975995	      0.00000000
      1.88000000	    -14.24052961	      2.05776648	      1.87328412	      0.39702313	      0.70427594	     -0.33893885	     42.29952558	     -7.21920737	      4.82693055	    -62.19775611	      7.63784513	     -0.00000000	     -0.00000000	     -1.08555563	     21.95775739	      6.95385491	     -0.92690579	    -17.11295399	     -3.91082121	     -0.00000000	      0.00000000	     -0.29867739	     -1.03814634	     -2.52806707	     -6.46674438	      0.93385335	      3.20785797	     -0.00000000	      4.47632628	     10.66527210	     -0.00000000
      1.88500000	    -14.19608029	      1.79597843	      2.19663419	      0.40359965	      0.70483967	     -0.33901889	     42.63849844	     -7.17310568	      4.48018476	    -60.88300858	      7.77329450	      0.00000000	      0.00000000	     -1.06260896	     20.99684268	      6.82822859	     -0.56872598	    -16.52615118	     -4.03592055	      0.00000000	      0.00000000	     -0.28843575	     -1.20092912	     -2.25176272	     -6.79826566	      1.82767884	      1.88317583	      0.00000000	      5.15000523	     11.11455198	      0.00000000
      1.89000000	    -14.12690387	      1.62203347	      2.54282882	      0.41015684	      0.70525828	     -0.33910412	     42.95008956	     -7.23331663	      4.09985685	    -59.57195327	      7.83870115	      0.00000000	      0.00000000	     -1.03972673	     20.00765693	      6.81706262	     -0.10826397	    -15.97571305	     -4.17818569	     -0.00000000	     -0.00000000	     -0.27882879	     -1.39236039	     -2.13061003	     -7.22011484	      2.00084643	      1.09367881	     -0.00000000	      5.26186178	     11.04669604	     -0.00000000
      1.89500000	    -14.11244296	      1.45338202	      2.94820998	      0.41666836	      0.70543488	     -0.33917289	     43.29429997	     -7.33117026	      3.63264787	    -58.20829808	      7.83834902	      0.00000000	      0.00000000	     -1.01592645	     19.09795025	      6.79632018	      0.59612699	    -15.50493526	     -4.24387526	      0.00000000	      0.00000000	     -0.27061217	     -1.42845853	     -2.05621746	     -7.61242580	      1.84894406	      0.65446157	     -0.00000000	      5.03085852	     10.46352589	     -0.00000000
      1.90000000	    -14.55597689	      1.00459666	      3.43246368	      0.42328486	      0.70509581	     -0.33941559	     43.97737678	     -7.19424623	      2.89253666	    -56.49769711	      7.68650313	     -0.00000000	     -0.00000000	     -0.98607083	     18.81406554	      6.49718330	      1.33247772	    -15.22671115	     -4.25984919	      0.00000000	     -0.00000000	     -0.26575624	     -0.59359812	     -1.19645294	     -7.73757210	      1.46834204	      0.39153592	      0.00000000	      4.52017293	      9.66220717	     -0.00000000
      1.90500000	    -14.03568656	      1.12727590	      3.70493624	      0.42959821	      0.70535434	     -0.33918267	     43.81242896	     -7.39802981	      2.70554518	    -55.19130633	      7.58227524	      0.00000000	      0.00000000	     -0.96327001	     17.44044622	      6.75379431	      1.56670413	    -14.91878790	     -4.52034585	      0.00000000	      0.00000000	     -0.26038197	     -1.82243135	     -1.94291126	     -8.34265769	      2.80796676	     -0.44421229	      0.00000000	      6.06075686	     10.55613194	      0.00000000
      1.91000000	    -14.00973711	      1.01415184	      4.15587607	      0.43600500	      0.70509840	     -0.33916615	     44.03776809	     -7.49640551	      2.14878380	    -53.56968197	      7.31429720	     -0.00000000	      0.00000000	     -0.93496733	     16.65177423	      6.78178079	      2.25252584	    -14.71365113	     -4.62041635	     -0.00000000	     -0.00000000	     -0.25680166	     -2.00947483	     -2.00406679	     -8.87684926	      2.66672445	     -0.73078007	     -0.00000000	      6.02338293	     10.01622652	      0.00000000
